<?xml version="1.0" encoding="utf-8"?>
<!-- Generator: Adobe Illustrator 16.0.0, SVG Export Plug-In . SVG Version: 6.00 Build 0)  -->
<!DOCTYPE svg PUBLIC "-//W3C//DTD SVG 1.1//EN" "http://www.w3.org/Graphics/SVG/1.1/DTD/svg11.dtd">
<svg version="1.1" id="Layer_1" xmlns="http://www.w3.org/2000/svg" xmlns:xlink="http://www.w3.org/1999/xlink" x="0px" y="0px"
	 width="959.68px" height="479.85px" viewBox="1041.79 17.831 959.68 479.85" enable-background="new 1041.79 17.831 959.68 479.85"
	 xml:space="preserve">
<path fill="#0E6BA8" d="M1041.79,497.681h2.66h2.67h2.66h2.67h2.67h2.66h2.67h2.66h2.67h2.66h2.67h2.67h2.66h2.67h2.66h2.67h2.67
	h2.66h2.67h2.66h2.67h2.659h2.671h2.67h2.659h2.671h2.659h2.67h2.66h2.67h2.67h2.66h2.67h2.66h2.67h2.67h2.66h2.67h2.66h2.67h2.66
	h2.67h2.67h2.66h2.67h2.659h2.671h2.659h2.67h2.671h2.659h2.67h2.66h2.67h2.67h2.66h2.67h2.66h2.67h2.66h2.67h2.67h2.66h2.67h2.66
	h2.67h2.67h2.66h2.67h2.66h2.67h2.66h2.67h2.67h2.66h2.67h2.66h2.67h2.66h2.67h2.67h2.66h2.67h2.66h2.67h2.67h2.66h2.67h2.66h2.67
	h2.66h2.67h2.67h2.66h2.67h2.66h2.67h2.66h2.67h2.67h2.66h2.67h2.66h2.67h2.67h2.66h2.67h2.66h2.67h2.66h2.67h2.67h2.66h2.67h2.66
	h2.67h2.659h2.671h2.67h2.659h2.671h2.659h2.67h2.671h2.659h2.67h2.66h2.67h2.66h2.67h2.67h2.66h2.67h2.66h2.67h2.66h2.67h2.67h2.66
	h2.67h2.66h2.67h2.67h2.66h2.67h2.66h2.67h2.66h2.67h2.67h2.66h2.67h2.659h2.671h2.67h2.659h2.671h2.659h2.67h2.66h2.67h2.67h2.66
	h2.67h2.66h2.67h2.66h2.67h2.67h2.66h2.67h2.66h2.67h2.67h2.66h2.67h2.66h2.67h2.66h2.67h2.67h2.66h2.67h2.66h2.67h2.66h2.67h2.67
	h2.66h2.67h2.66h2.67h2.67h2.66h2.67h2.66h2.67h2.66h2.67h2.67h2.66h2.67h2.659h2.671h2.659h2.67h2.671h2.659h2.67h2.66h2.67h2.67
	h2.66h2.67h2.66h2.67h2.66h2.67h2.67h2.66h2.67h2.66h2.67h2.67h2.66h2.67h2.66h2.67h2.66h2.67h2.67h2.66h2.67h2.66h2.67h2.66h2.67
	h2.67h2.66h2.67h2.66h2.67h2.67h2.66h2.67h2.66h2.67h2.659h2.671h2.67h2.659h2.671h2.659h2.67h2.66h2.67h2.67h2.66h2.67h2.66h2.67
	h2.67h2.66h2.67h2.66h2.67h2.66h2.67h2.67h2.66h2.67h2.66h2.67h2.66h2.67h2.67h2.66h2.67h2.66h2.67h2.67h2.66h2.67h2.66h2.67h2.66
	h2.67h2.67h2.66h2.67h2.66h2.67h2.66h2.67h2.67h2.66h2.67h2.659h2.671h2.67h2.659h2.671h2.659h2.67h2.66h2.67h2.67h2.66h2.67h2.66
	h2.67h2.67h2.66h2.67h2.66h2.67h2.66h2.67h2.67h2.66h2.67h2.66h2.67h2.66h2.67h2.67h2.66h2.67h2.66h2.67h2.67h2.66h2.67h2.66h2.67
	h2.66h2.67h2.67h2.66h2.67h2.659h2.671h2.659h2.67h2.671h2.659h2.67h2.66h2.67h2.67h2.66h2.67h2.66h2.67h2.66h2.67h2.67h2.66h2.67
	h2.66v-2.67v-2.66v-2.67v-2.67v-2.66v-2.67v-2.66v-2.67v-2.67v-2.66v-2.67v-2.66v-2.67v-2.66v-2.67v-2.67v-2.66v-2.67v-2.66v-2.67
	v-2.66v-2.67v-2.67v-2.66v-2.67v-2.659V425.7v-2.67v-2.659V417.7v-2.659v-2.67v-2.66v-2.67v-2.67v-2.66v-2.67v-2.66v-2.67v-2.66
	v-2.67v-2.67v-2.66v-2.67v-2.66v-2.67v-2.67v-2.66v-2.67v-2.66v-2.67v-2.66v-2.67v-2.67v-2.66v-2.67v-2.66v-2.67v-2.66v-2.67v-2.67
	v-2.66v-2.67v-2.66v-2.67v-2.67v-2.66v-2.67v-2.66v-2.67v-2.66v-2.67v-2.67v-2.66v-2.67v-2.66v-2.67v-2.67v-2.66v-2.67v-2.66v-2.67
	v-2.66v-2.67v-2.67v-2.66v-2.67v-2.659v-2.671v-2.659v-2.67v-2.67v-2.66v-2.67v-2.66v-2.67v-2.67v-2.66v-2.67v-2.66v-2.67v-2.66
	v-2.67v-2.67v-2.66v-2.67v-2.66v-2.67v-2.66v-2.67v-2.67v-2.66v-2.67v-2.66v-2.67v-2.67v-2.66v-2.67v-2.66v-2.67v-2.66v-2.67v-2.67
	v-2.66v-2.67v-2.66v-2.67v-2.66v-2.67v-2.67v-2.66v-2.67v-2.66v-2.67v-2.67v-2.66v-2.67v-2.66v-2.67v-2.66v-2.67v-2.67v-2.66v-2.67
	v-2.66v-2.67v-2.66v-2.67v-2.67v-2.66v-2.67v-2.66v-2.67v-2.67v-2.66v-2.67v-2.66v-2.67v-2.66v-2.67v-2.67v-2.66v-2.67v-2.66v-2.67
	v-2.67v-2.66v-2.67v-2.66v-2.67v-2.66v-2.67v-2.67v-2.66v-2.67V28.5v-2.67v-2.66V20.5v-2.67h-2.66h-2.67h-2.66h-2.67h-2.67h-2.66
	h-2.67h-2.66h-2.67h-2.66h-2.67h-2.67h-2.66h-2.67h-2.659h-2.671h-2.67h-2.659h-2.671h-2.659h-2.67h-2.66h-2.67h-2.67h-2.66h-2.67
	h-2.66h-2.67h-2.66h-2.67h-2.67h-2.66h-2.67h-2.66h-2.67h-2.67h-2.66h-2.67h-2.66h-2.67h-2.66h-2.67h-2.67h-2.66h-2.67h-2.66h-2.67
	h-2.66h-2.67h-2.67h-2.66h-2.67h-2.66h-2.67h-2.67h-2.66h-2.67h-2.659h-2.671h-2.659h-2.67h-2.671h-2.659h-2.67h-2.66h-2.67h-2.67
	h-2.66h-2.67h-2.66h-2.67h-2.66h-2.67h-2.67h-2.66h-2.67h-2.66h-2.67h-2.66h-2.67h-2.67h-2.66h-2.67h-2.66h-2.67h-2.67h-2.66h-2.67
	h-2.66h-2.67h-2.66h-2.67h-2.67h-2.66h-2.67h-2.66h-2.67h-2.66h-2.67h-2.67h-2.66h-2.67h-2.66h-2.67h-2.67h-2.66h-2.67h-2.659
	h-2.671h-2.659h-2.67h-2.671h-2.659h-2.67h-2.66h-2.67h-2.66h-2.67h-2.67h-2.66h-2.67h-2.66h-2.67h-2.67h-2.66h-2.67h-2.66h-2.67
	h-2.66h-2.67h-2.67h-2.66h-2.67h-2.66h-2.67h-2.66h-2.67h-2.67h-2.66h-2.67h-2.66h-2.67h-2.67h-2.66h-2.67h-2.66h-2.67h-2.66h-2.67
	h-2.67h-2.66h-2.67h-2.659h-2.671h-2.67h-2.659h-2.671h-2.659h-2.67h-2.66h-2.67h-2.67h-2.66h-2.67h-2.66h-2.67h-2.66h-2.67h-2.67
	h-2.66h-2.67h-2.66h-2.67h-2.67h-2.66h-2.67h-2.66h-2.67h-2.66h-2.67h-2.67h-2.66h-2.67h-2.66h-2.67h-2.66h-2.67h-2.67h-2.66h-2.67
	h-2.66h-2.67h-2.67h-2.66h-2.67h-2.66h-2.67h-2.66h-2.67h-2.67h-2.66h-2.67h-2.659h-2.671h-2.659h-2.67h-2.671h-2.659h-2.67h-2.66
	h-2.67h-2.67h-2.66h-2.67h-2.66h-2.67H1423h-2.67h-2.67H1415h-2.67h-2.66H1407h-2.67h-2.66H1399h-2.66h-2.67h-2.66h-2.67h-2.67
	h-2.66h-2.67h-2.66h-2.67h-2.659h-2.671h-2.67h-2.659h-2.671h-2.659h-2.67h-2.671h-2.659h-2.67h-2.66h-2.67h-2.66h-2.67h-2.67h-2.66
	h-2.67h-2.66h-2.67h-2.66h-2.67h-2.67h-2.66h-2.67h-2.66h-2.67h-2.67h-2.66h-2.67h-2.66h-2.67h-2.66h-2.67h-2.67h-2.66h-2.67h-2.66
	h-2.67h-2.66h-2.67h-2.67h-2.66h-2.67h-2.66h-2.67h-2.67h-2.66h-2.67h-2.66h-2.67h-2.66h-2.67h-2.67h-2.66h-2.67h-2.66h-2.67h-2.66
	h-2.67h-2.67h-2.66h-2.67h-2.66h-2.67h-2.67h-2.66h-2.67h-2.66h-2.67h-2.66h-2.67h-2.67h-2.66h-2.67h-2.659h-2.671h-2.67h-2.659
	h-2.671h-2.659h-2.67h-2.66h-2.67h-2.67h-2.66h-2.67h-2.66h-2.67h-2.66h-2.67h-2.67h-2.66h-2.67h-2.66h-2.67h-2.67h-2.66h-2.67
	h-2.659h-2.671h-2.659h-2.67h-2.671h-2.659h-2.67h-2.66h-2.67h-2.66h-2.67h-2.67h-2.66h-2.67h-2.66h-2.67h-2.67h-2.66h-2.67h-2.66
	h-2.67h-2.66h-2.67h-2.67h-2.66h-2.67h-2.66v2.67v2.67v2.66v2.67v2.66v2.67v2.66v2.67v2.67v2.66v2.67v2.66v2.67v2.66v2.67v2.67v2.66
	v2.67v2.66v2.67v2.67v2.66v2.67v2.66v2.67v2.66v2.67v2.67v2.66v2.67v2.66v2.67v2.67v2.66v2.67v2.66v2.67v2.66v2.67v2.67v2.66v2.67
	v2.66v2.67v2.66v2.67v2.67v2.66v2.67v2.66v2.67v2.67v2.66v2.67v2.66v2.67v2.66v2.67v2.67v2.66v2.67v2.66v2.67v2.66v2.67v2.67v2.66
	v2.67v2.66v2.67v2.67v2.66v2.67v2.66v2.67v2.66v2.67v2.67v2.66v2.67v2.66v2.67v2.66v2.67v2.67v2.66v2.67v2.66v2.67v2.67v2.659v2.671
	v2.659v2.67v2.66v2.67v2.67v2.66v2.67v2.66v2.67v2.66v2.67v2.67v2.66v2.67v2.66v2.67v2.67v2.66v2.67v2.66v2.67v2.66v2.67v2.67v2.66
	v2.67v2.66v2.67v2.67v2.66v2.67v2.66v2.67v2.66v2.67v2.67v2.66v2.67v2.66v2.67v2.66v2.67v2.67v2.66v2.67v2.66v2.67v2.67v2.66v2.67
	v2.66v2.67v2.66v2.67v2.67v2.66v2.67v2.659v2.671v2.659v2.67v2.671v2.659v2.67v2.66v2.67v2.67v2.66v2.67v2.66v2.67v2.66v2.67v2.67
	v2.66v2.67v2.66v2.67v2.66v2.67v2.67v2.66v2.67v2.66v2.67v2.67v2.66V497.681z"/>
<g>
	<path fill="#FFFFFF" d="M1872.465,395.771l4.4-8.2l3.149-1.5l0.91-2.39l-5.17-2.49l2.86-3.37l2.521-0.01l1.02-4.1l4.59-2.49
		l-4.051-1.35l-0.369-2.65l6.32-0.09l1.6-0.94l-0.5-4.93l8.27-0.28l3.95-1.43l1.4-7.72l-3.39-2.29l9.489,1.39l3.011-1.48l4.14-5.739
		l4.149-3.36l5.93-10.15l-0.449-1.47l2.65-4.64l3.129-2.12l9.061-2.99l2.9,0.01l2.779-2.75l0.45-2.76l2.71-3.479l2.34-10.48
		l-0.189-4.989l5.08-7.341l5.12-5.45l1.06-4.41l-1.35-5.01l-12.641-6.91l-3.99,0.11l-9.149-3.63l-7.78-2.58l-2.029,1.75l-0.09-2.68
		l-11.361-15.05l-5.739-1.64l-5.63,0.14l-3.49-2.29l-1.72-3.11l-4.19-1.55l-0.42-2.13l-5.07-2.77l-7.789,0.58l-1.53-1.19
		l-5.351-0.63l-1.729-1.49l-6.71,1.26l-0.939-3.91l-4.431,3.23l-5.511,1.62l-3.609,5.28l-7.3-2.6l-6.96,1.08l-4.45-5.77l1.89-9.66
		l-4.899-2.67l-7.78,0.35l-1.21-1.77l4.12-12.8l-9.24,0.88l-1.32,4.58l-1.689,1.09l-9.15,0.83l-2.83-0.71l-3.439-4.81l-1.37-9.7
		l1.5-4.26l-1.04,0.08l1.04-0.08l4.11-7.65l2.43-1.97l8.16-0.53l3.93,1.49l4.63-3.37l5.38-0.04l9.99,4.93l-0.55,1.77l3.06,5.37
		l3.541,1.77l0.869-4.46l-3.83-10.26l3.17-4.75l12.2-8.11l-2.18-8.44l2.19,2.08l4.689-6.64l5.38-1.34h-4.71l6.91-1.5l2.67-5.84
		l8.41-3l-0.461-0.87l2.961-0.33l4.26-0.08l-4.62,2.2l0.101,2.26l2.02,0.19l11.529-4.58l3.301-1.75l-1.91-2.9l-2.67,3l-4.41,0.38
		l-3.46-1.33l-1.71-4.88l2.51-1.79l-2.359-1.31l-3.99,0.27l-5.59,2.22l-4.28,3.5l4.649-5.55l5.631-3.09l12.47,0.39l4.5-0.43
		l3.36-2.19l8.24-2.89l-0.19-2.99l-16.11-8.18l1.07-1.68l-8.5-8.98l-4.311,4.18l-3.859,1.48l-4.37-1.98l-0.8-5.61l-4.76-0.2
		l-6.57-3.49l-2.21,0.7l-7.31-0.98l-1.861,0.61l2.061,6.58l-3.15,2.79l3.24,2.01l0.551,5.9l-7.291,3.12l1.881,1.41l1.39,4.21
		l-3.489,3.6l-3.971-2.53l-2.76-5.66l0.439-2.31l-7.3-0.41l-15.69-5.28l-3.739,0.52l-2.44-4.52l-3.92-0.44l4.07-8.2l3.26-2.16
		l3.109-0.33l9.181-4.84l4.149-4.76l6.461,0.4l5.22-1.87l-1.54-2.72l-9.63-1.74l-4.729,4.23l-2.58-1.8l0.799-1.98l-3.189-1.71
		l-3.561,2.09l0.011-2.73l-4.96-0.54l2.369-1.31l-9.84-4.61l-3.149,1.93l-0.21,2.95l5.96,2.72l-1.2,2.68l-10.33-0.91l0.311,1.66
		l-8.03,0.36l-4.71-1.2l-2.971,0.21l-2.68-1.44l-7.529-0.25l1,2.04l-2.9,1.35l-2.84-1.6l-9.471,0.78l-4.819-0.57l3.75-1.32
		l-3.591-1.35l-12.52-1.26l-4.08-1.12l-7.51,1.06l-0.359-2.02l-3.551,1.8l-4.51-2.39l-4.42,1.6l-1.84-1.11l-8.35,1.84l-3.961-0.33
		l-8.35,1.7l-4.2-1.28l-4.97-0.64l0,0l-2.9-0.38l-4.039-0.8l-10.73-0.16l-23.9-3.05l-6.561,1.24l-10.369,2.76l-4,2.51l-4.73,0.09
		l-1.49,1.39l13.561,5.98l-5.63,0.11l0.37-1.33l-11.891,2.41l3.381,1.55l10.89,2l3.31-0.17l-0.05,2.53l-8.069,0.82l-4.16,4.39
		l6.14,4.54l3.47-0.51l1.461,3.51l7.76,0.66l5.379-1.32l-1.819,3.6l-6.261,3.07l-4.619,1.39l-8.36,3.53l4.99-0.32l7.41-2.54
		l1.829,0.21l3.961-2.4l12.88-6.4l-1.95-1.29l6.95-3.67l-0.81,4.19l9.85-2.19l-0.551-1.86l2.961-0.56l8.41,2.36l3.699-0.23
		l7.211,1.46l5.51,2.77l9.93,1l1.43,2.52l3.44,2.15l0.75,2.33l3.819,1.85l0,0l0.051,1.38l3.229,1.93l0.47,2.15l3.41,1.14l1.1,3.99
		l4.83,1.11l7.07,3.76l0.35,0.01l0.91,2.19l-5.51-0.54l1.78,7.62l-1.69,7.35l2.15,10.17l7.95,10.11l7.47,4.1l2.17,2.89l1.08,2.4
		l3.21,5.54l3.521,3.85l-0.99,0.99l2.59,2.94l3.46,1.67l0.32,3.4l5.03,3.48l-3.53-8.61l-7.229-8.23l-1.621-4.38l4.771,0.59
		l0.899,3.07l9.381,9.53l-0.41,1.65l6.76,5.49l4.029,8.62l-0.889,0.26l5.949,5.71l18.51,7.04l7.15-0.77l7.04,5.37l8.88,2.07
		l5.98,6.39v2.19l2.52,0.06l3.21,3.9l9.351,2.4l-1.28-1.45l3.63-2.42l1.33,0.74l3.05,5.41l0.42,2.25l-1.63,8.4l-1.32,0.18
		l-4.439,4.96l-2.24,4.86l0.45,2.42l2.649,1.851l-1.42,1.989l-2.949,3.551l0.42,3.73l5.899,6l8.07,16.699l2.06,1.641l10.07,5.59
		l0.23,1.1l2.67,1.53l0.56,3.75l0.19,4.37l-2.17,16.649l-1.561,3.25l-0.47,5.49l0.61,4l-4.61,12.54l-1.12,0.09l0.99,5.6l-1.23,1.82
		l-1.74,8.75l1.68,0.38l0.83-3.33l1.791,0.71l-1.391,5.521l-2.97-0.93l-0.899,4.42l-2.541,2.359l4.041,0.78l-2.811,2.06
		l-1.141,2.561l1.771,9.57l6.37,3.38l10.62-3.28L1872.465,395.771z M1818.146,128.721l2.699-1.42l5.85,2.47l2.99,0.4l1.25,2.89
		l-0.56,0.89v0.01l-6.36-0.03l-3.39-1.36l0.86-1.4l-6.551,2.42l-4.31-0.36l6.431-3.46l0,0L1818.146,128.721z M1831.595,133.65
		l9.09,1.74l2.601,2.87l-4.03,0.55l-1.359,3.49l-1.721,0.88l0,0l-4.4-6.96l-2.27-0.53l-4.1,4.55l0.68,4.53l-3.25,1.98l-1.25-4.24
		l1.109-3.36l-1.34-0.64l4.451-2.93l6.609-0.48l-1.32-1.06l0,0L1831.595,133.65z M1835.795,145.75l3.94-1.72l1.459,0.27l4.341-1.08
		l0,0l0.05,0.26l-9.189,3.82l-2.061-1.72l0,0L1835.795,145.75z M1845.165,142.451l-1.08-1.03l4.95-1.06l3.34-0.26l0.03,0.04
		l0.27,0.38l0.16,1.03l-6.279,0.56l-1.261,0.31L1845.165,142.451z M1872.955,398.07l-6.601,3.84l-5.799-0.31l6.069,2.92l7.62,1.49
		l3.17-1.91l1.359,0.94l3.73-1.471l-7.199-2.26l-1.33-2L1872.955,398.07z M2000.984,497.294l-0.043-37.568l-22.026,2.425
		l-13.36,3.24l-5.38,3.19l0.73,0.989l15.87-0.52l3.029,2.87l-25.84,2.66l-6.739,0.06l-5.431,1.93l-18.53-0.939l-19.32,3.029
		l-3.239,0.94l-3.92-2.25l-16.021-2.4l-6.64-0.42l-13.47-2.399l-5.631-0.42l-7.109-2.87l4.08-2.82l4.59,0.26l2.98-0.84l-8.721-2.14
		l-0.84-1.04l17.7-0.21l2.14-1.101l14.521-2.56l2.819-1.83l3.551-0.36l3.39-3.399l-6.681-10.5l-6.579-3.391l5.12-3.869l4.33-0.83
		l-1.041-2.931l-1.31-1.199l-11.329,5.949l-1.301,1.21l0.99,13.73l-1.57,0.84l-22.029,3.13l-1.83-0.88l-6.371-0.32l-5.789,0.891
		l-9.93-0.99l-2.19-1.05l-8.56-1.41l-2.301,2.04l-6.26-0.42l-10.391,1.2l-3.609-0.15l-3.859-1.729l-12.111-0.78l3.031,3.97
		l3.439,0.21l3.029,1.83l-1.409,1.15l-11.28-0.94l-7.15,0.62l-9.869-2.04l-2.771,0.79l-4.38-2.67l-2.87,0.939l-9.771,0.32
		l-2.709,0.78h-29.92l-11.431-0.47l-13.319,2.04l-15.98,0.829l0.27,2.931l-4.02,0.26l-9.93,2.19l-4.221,0.27l-2.199-1.15l-4.23,0.36
		l-8.09-0.83l0.84,3.03l7.25,2.76l15.46,0.79l7.36,1.51l0.939,1.101l-11.279,2.66l-3.86-0.881l-2.04,2.761l-1.93,4.39l7.15,0.58
		l2.25,1.04l8.609,0.63l10.5,0.1l-0.58,1.261l-14.46,1.51l-6.42-0.83l-11.33-0.53l-7.681,0.73l-10.279-0.62l-13.58-1.521
		l-7.811-1.829l-7.83,0.47l-3.979,1.27l-7.659-0.22l-8.133,0.528l0.292,13.875 M1935.545,465.811l-4.021-0.57l-3.969,0.57
		l-9.871,5.07l-5.689,0.729l3.029,1.99l6.311,0.15l14.939-1.83l4.121-0.83l-1.561-4.13L1935.545,465.811z M1897.104,471.131
		l-6.16,0.939l-11.75-0.37l4.811,1.78l11.54,0.21L1897.104,471.131z M1873.435,446.91l-7.25-5.119l-1.52,1.25l-0.891,4.5l-3.08-0.11
		l-4.75,1.36l0.16,1.1l8.141,0.05l-1.301,1.04l9.611-0.83L1873.435,446.91z M1631.495,469.681l-5.43-2.98l-4.961-0.42l5.281,3.761
		L1631.495,469.681z M1850.646,186.871l-0.9,0.16l-0.051,1.4L1850.646,186.871z M1849.226,194.42l-1.75-3.87l-0.58,1.69
		L1849.226,194.42z M1848.465,186.9l-3.09-0.56l0.181,0.99L1848.465,186.9z M1906.274,122.631l0.701-2.52l-2.311,0.92l-6.74,9.82
		l8.04-0.07l8.479,2.6l1.121-2.34l-3.03-2.62l0.819-1.95l-8.85-1.5L1906.274,122.631z M1873.306,36.21l-19.24,0.11l-1.42-0.28
		l-16.44,0.83l-2.03,1.44l-6.189-0.89l-3.91,0.99l-12.311,1.03l0.58,0.91l10.051,2.77l15.33,0.13l-13.551,0.57l4.891,2.42
		l-7.641,2.59l4.33,0.51l3.631,1.71l-12.371,1.57l0.34,1.28l16.83,0.04l6.971,0.74l7.119-1.6l0.011-2.99l6.649-1.67l-4.039-2.12
		l8.069-0.29l7.2-0.99l4.561-2.17l10.629-2.37l-5.799,0.01l15.359-2.29l0.12-0.72L1873.306,36.21z M1825.155,62.73l1.96-1.72
		l-6.88,0.71l-4.791,3.47l0.851,2.7l3.78,0.01l-2.78,1.22l32.591,2.64l2.819,1.66l-1.71,0.68l5.4,0.9l5.85,3.39l-3.49,4.88
		l-10.5,0.38l-1.75,1.97l2.25,0.91l7.71-0.42l7.82,1.89l-0.931,0.75l8.951,2.85l7.229,1.06l-6.979-4.84l10.049,2.86l0.91-1.92
		l-9.25-6.12l0.34-1.53l3.44-0.33l7.479,3.7l4.681-3.09l0.83-1.88l-4.2-0.17l-3.83-2.45l-10.51-2.33l4.891-1.24l-11.271-4.62
		l-2.78-1.7l-4.949,0.6l-17.73-1.95l0.4-1.74l-4.58-2.76l-6.75,1.1l-2.471,2.14L1825.155,62.73z M1853.675,78.75l2-2.3l-2.08-0.73
		l-2.91,3.16L1853.675,78.75z M1852.405,62.881l-4.59-1.47l-7.391-0.11l3.6,2.54L1852.405,62.881z M1803.505,52.23l-5.49-0.17
		l2.08,1.92l5.521,0.32l3.92,3.95l7.09,0.86l17.42-0.13l3.41,0.33l5.04-2.39l-2.85-1l-9.76,0.04l-4.24,0.57l-12.24-1.57l-1.69-1.88
		l-5.25,0.01L1803.505,52.23z M1828.896,82.73l-1.931-0.22l-3.569,5.86l3.619-0.26l0.91,1.561l6.44-2.8l5.64,1.84l-1.73-2.78
		L1828.896,82.73z M1823.935,45.4l-2.1-1.76l-12.27-2.5l-5.03,0.75l-6.431,2.18l10.221,4.84l10.24,0.15l8.59-2.8L1823.935,45.4z
		 M1807.476,63.761l3.18-0.52l3.98-2.37l-10.65-0.74l-4.08,3.18l1.67,2.34l3.04,0.1L1807.476,63.761z M1800.455,49.671l0.72-0.96
		l-8.189-1.21l0.209,1.1L1800.455,49.671z M1800.935,73.531l-6.85-2.76l-4.21,1.98l3.64,1.2l5.771,0.51L1800.935,73.531z
		 M1788.386,60.9l-3.15,1.29l2.93,1.75l-5.439-0.33l-0.051,0.85l11.03,3.3l4.37-1.04l0.48-2.39L1788.386,60.9z M1793.335,53.241
		l-10.84,1.02l0.17,2.06l4.37-0.21l2.81,1.98l4.4-0.27L1793.335,53.241z M1789.175,48.96l-2.039-1.27l-12.441-1.34l0.841,2.46
		l5.94,0.1l8.739,1.16L1789.175,48.96z M1751.565,62.831l-13.95,4.16l2.579,1.74l16.041,1.44l9.109,4.229l5-0.9l12.51,0.97l-0.799-2
		l4.379-0.21l0.291-1.18l-9.291-2.58l-8.59-2.86l-1.34,1.11l-4.619-3.49l-3.011,1.36l-3.7-1.35l-5.939,0.81L1751.565,62.831z
		 M1767.444,54.621l-6.09-0.61l3.811,2.55l-4.66-0.2l-4.73-1.58l-7.51-0.9l-6.14,3.35l3.729,0.47l12.041-0.31l14.609,0.42l1.15-2.57
		L1767.444,54.621z M1762.175,50.631l0.891-0.8l-9.811,0.71l3.95,0.86L1762.175,50.631z M1734.795,67.46l3.3-3.03l9.891-2.54
		l-5.45-1.9l-10.62-0.7l-9.01,0.42l2.609,1.63l-5.3,4.83l6.15,1.41l1.409,1.17L1734.795,67.46z M1746.155,50.771l-7.75,0.35
		l-5.471,1.73l-0.91,2.57l4.261-0.41l9.5-2.19L1746.155,50.771z M1700.886,113.351l0.329,2.02l2.681,1.14l0.799-3.03
		L1700.886,113.351z M1843.505,197.071l-8.25,0.2l9.301,3.01l1.51-0.1l4.359,3.16l-1.789,1.48l9.219-0.51l0.32-0.63l-6.26-2.46
		l-4.859-3.48L1843.505,197.071z M1864.755,209.65l6.78-1.01l-4.38-3.88l-6.95,0.64l-2.78,3.46L1864.755,209.65z M1899.835,393.98
		l-3.87,0.4l-3.2,1.6l4.801,0.93L1899.835,393.98z M2000.984,37.729l-17.31-2.619l-21.3-0.34l-9.42,0.26l-3.399,0.98l-9.351-0.12
		l-8.95,1.6l-0.369,1.14l-9.301-0.64l-7.07,1.47l-2.91-0.83l-22.709,1.14l1.119,1.2l-3.879,0.29l-9.23,1.86l-2.33,1.06l7.199,0.96
		l-1.029,0.97l-19.859,2.561l-0.361,1.04l6,1.08l-0.949,1.68l7.72,2.52l19.29-0.11l7.15,1.56l10.31,7.82l-2.97,2.48l6.4,2.18
		l-3.33,3.27l3.27,0.87l1.27,2.47l-2.64,3.11l0.82,2.91l3.69,2.46l10.699,11.51l5.33,0.01l3.939,2.18l3.75-0.16l2.57-4.81
		l-1.08-2.08l4.351-2.14l1.38-3.61l2.29-1.65l9.22-1.39l5.73-1.87l3.71-2.81l13.5-1.96l14.52-9.9l4.453-5.748 M2000.938,77.878
		l-8.073,3.232l-1.8,1.74l0.989,1.92l5.801,1.3l3.082-2.383 M1850.905,210.121l-3.5-1.56l-0.32,0.61L1850.905,210.121z
		 M1589.595,78.601l-13.52-4.69v10.62l7.4-1.44l12.439,2.83l0.07-2.61l7.01-1.44l-5.221-2.49l-7.229-0.4L1589.595,78.601z
		 M1579.556,68.771l2.969-1l-3.85-0.77l-2.6,1.93L1579.556,68.771z M1893.476,230.801l-1.99-1.73l0.06,1.05L1893.476,230.801z
		 M1648.035,105.5l1.17-2.1l-5.61,1.18l0.41,1.24L1648.035,105.5z"/>
	<polyline fill="#FFFFFF" points="1580.369,75.4 1576.075,73.911 1564.989,71.275 1559.45,71.436 1550.939,70.686 1549.76,71.875 
		1551.91,73.576 1548.61,74.426 1543.97,72.056 1525.58,72.445 1522.3,71.686 1522.63,69.735 1520.41,68.636 1515.1,68.195 
		1504.33,68.695 1497.359,66.666 1495.09,65.076 1471.01,63.346 1467.49,64.505 1469.41,66.976 1463.09,67.355 1457.93,66.536 
		1453.39,67.246 1449.109,66.045 1446.54,68.846 1442.35,67.766 1439,65.666 1439.35,62.846 1435.04,61.436 1425.13,60.985 
		1424.979,63.025 1413.83,62.625 1413.18,61.386 1397.84,60.346 1395.439,60.846 1388.189,59.806 1400.149,56.746 1400.81,55.355 
		1392.66,53.056 1384.87,53.025 1375.67,51.945 1379.3,51.286 1374.729,50.426 1365.149,53.806 1360.26,53.755 1354.27,55.176 
		1352.09,54.576 1345.09,54.826 1344.2,55.556 1337.16,55.905 1328.92,57.306 1325.83,59.056 1328,60.445 1311.18,61.216 
		1311.439,64.056 1313.81,66.275 1308.89,64.755 1303.35,64.905 1298.89,65.945 1300.109,67.875 1297.26,67.386 1298.31,64.815 
		1291.42,67.085 1294.88,69.266 1292.76,71.936 1296.31,73.636 1295.069,75.396 1296.62,76.916 1293.609,79.505 1286.569,80.755 
		1291.79,76.966 1292.93,75.186 1289.99,73.556 1288.08,67.186 1290.609,65.025 1290.05,63.545 1283,62.846 1279.26,65.786 
		1274.34,68.206 1274.97,72.396 1280.97,74.636 1279.189,76.036 1257.96,71.346 1256.58,72.226 1259.37,73.766 1253.3,73.926 
		1249.35,75.036 1239.13,75.735 1239.75,73.996 1224.88,77.545 1224.229,79.246 1220.109,79.826 1217.99,77.436 1221.37,77.105 
		1219.84,75.605 1212.39,74.755 1214.35,76.405 1213.04,78.005 1215.26,79.596 1213.71,81.426 1208.76,80.335 1202.55,82.945 
		1204.34,84.905 1202.1,85.556 1195.649,83.896 1193.14,86.646 1189.7,85.835 1189.359,81.875 1185.01,79.926 1186.97,79.585 
		1198.87,81.605 1206.18,79.496 1203.96,76.456 1193.89,73.445 1186.59,72.806 1182.21,71.195 1176.54,70.445 1179.97,69.735 
		1171.63,67.786 1161.99,68.195 1157.93,70.405 1153.54,70.266 1147.689,71.436 1135.899,76.786 1124.609,85.646 1119.35,88.396 
		1112.31,90.636 1109.859,92.346 1111.649,101.366 1115.34,102.726 1118.89,102.096 1124.16,99.016 1125.95,100.656 
		1131.05,109.965 1134.14,109.846 1135.649,107.735 1138.88,107.985 1141.41,101.016 1144.189,100.396 1146.63,97.386 
		1142.189,94.025 1144.13,90.275 1153.52,85.835 1153.1,84.206 1155.689,82.346 1160.27,81.585 1162.479,84.536 1156.38,87.426 
		1152.689,90.655 1153.979,93.056 1153.39,95.686 1157.52,98.016 1166.54,96.476 1174.17,97.525 1158.77,99.766 1160.689,102.246 
		1160.85,105.536 1156.6,103.596 1154.08,104.505 1153.25,110.426 1143.53,111.326 1134.189,114.246 1129.92,112.346 
		1123.05,112.005 1124.75,103.656 1119.33,105.306 1118.2,109.556 1119.28,111.036 1112.74,114.906 1109.1,116.016 1106.76,119.945 
		1100.92,121.735 1100.12,123.926 1093.91,126.006 1091.399,124.855 1092.24,127.875 1087.76,127.186 1084.31,127.766 
		1084.58,129.715 1093.37,134.886 1092.859,140.195 1091.479,141.795 1075.28,140.926 1071.51,142.855 1072.6,144.006 
		1073.229,157.176 1072.83,159.266 1079.17,159.065 1082.22,161.726 1083.229,160.715 1090.83,159.785 1096.85,154.285 
		1095.81,152.756 1098.71,148.215 1102.13,147.656 1104.819,142.726 1108.7,141.855 1113.96,142.576 1123.74,140.465 
		1124.569,143.105 1130.91,147.576 1132.88,147.756 1139.49,153.676 1140.899,154.006 1143.25,148.586 1133.95,143.556 
		1130.109,140.016 1129.42,136.576 1131.58,135.625 1136.27,137.386 1137,139.605 1146.89,144.836 1148.28,150.256 
		1154.319,159.326 1158.27,160.455 1158.17,156.465 1160.64,157.166 1157.79,153.666 1159.77,149.086 1163,148.396 
		1166.819,150.516 1170.319,144.045 1172.68,141.035 1173.43,137.815 1177.53,134.836 1181.17,134.035 1185.319,134.705 
		1185.39,138.746 1193.41,137.285 1193.93,136.336 1189.75,134.195 1196.319,132.195 1200.91,132.136 1198.47,134.285 
		1196.62,138.506 1199.66,139.506 1207.319,146.826 1204.18,148.215 1198.78,148.386 1190.3,145.476 1179.58,148.016 
		1174.5,147.666 1173.38,149.695 1169.27,149.795 1166.319,152.346 1168.01,153.625 1166.71,155.695 1170.24,159.826 
		1175.72,161.195 1181.05,159.865 1183.21,161.295 1187.26,160.996 1189.09,159.465 1192.92,162.056 1189.189,172.056 
		1186.58,174.996 1181.02,173.766 1173.63,175.256 1167.18,173.346 1158.49,171.735 1153.979,169.996 1149.39,172.906 
		1150.01,174.945 1147.43,176.865 1138.439,173.906 1137.189,171.535 1125.49,167.525 1121.899,157.985 1110.729,159.676 
		1100.46,159.965 1079.899,163.855 1078.12,166.615 1070.39,174.436 1071.05,177.756 1065.39,182.516 1062.91,182.806 
		1053.939,194.306 1051.3,199.205 1053.16,203.985 1053.51,209.275 1050.74,217.775 1049.569,218.285 1051.99,221.306 
		1052.26,225.105 1057.68,230.326 1062.03,236.766 1072.55,244.666 1075.29,245.936 1084.149,243.775 1091.31,244.996 
		1108.08,240.836 1112.27,246.186 1119.21,244.826 1121.62,247.596 1120,260.516 1128.31,270.985 1131.84,280.375 1131.02,281.436 
		1132.89,289.646 1129.87,293.666 1127.58,301.996 1127.99,305.716 1130.16,308.325 1134.899,317.945 1134.96,321.136 
		1137.1,329.766 1145.13,341.955 1144.33,344.485 1146.81,349.376 1150.06,350.306 1159.45,347.636 1162.34,348.155 
		1169.77,346.126 1176.67,340.565 1183.09,332.995 1183.39,326.136 1191.08,321.855 1190.319,314.216 1189.28,310.296 
		1196.28,304.436 1201.72,302.125 1205.25,296.715 1204.03,285.056 1201.01,280.176 1201.77,276.476 1201.06,270.016 
		1204.88,264.215 1211.54,256.775 1220.68,249.936 1226.09,243.315 1228.38,239.416 1232.8,225.496 1214.16,229.705 
		1210.42,226.266 1211.939,225.625 1206.33,218.926 1202.689,216.406 1198.939,209.576 1195.49,204.746 1195.689,201.516 
		1191.26,195.965 1191.7,193.766 1187.47,187.865 1184.89,181.795 1186.979,183.846 1190.2,182.735 1193.18,186.715 
		1196.47,192.815 1199.16,194.406 1200.689,197.355 1200.89,200.795 1205.689,205.605 1210.25,212.836 1210.13,216.996 
		1212.47,223.865 1216.479,223.695 1226.319,220.226 1228.71,218.336 1232.97,217.096 1236.2,213.875 1242.609,212.365 
		1252.47,203.096 1255.99,197.485 1253.109,194.726 1248.09,192.926 1246.89,191.105 1247.13,187.416 1240.52,193.246 
		1234.62,193.516 1234.08,188.766 1231.819,189.615 1227.97,184.346 1226.66,183.735 1224.439,177.646 1230.149,177.186 
		1233.89,183.266 1242.41,186.955 1248.42,185.666 1249.56,188.936 1260.49,190.695 1273.49,189.775 1278.3,194.396 
		1280.93,198.666 1284.41,201.896 1290.17,200.615 1292.58,214.926 1295,218.586 1300.729,233.826 1303.26,236.315 1305.22,233.735 
		1307.649,232.985 1309.439,229.945 1309.88,217.195 1310.68,215.166 1315.66,213.416 1315.66,212.186 1323.3,205.625 
		1328.41,200.246 1337.2,199.336 1337.79,196.756 1340.25,196.865 1348,208.996 1347.64,214.795 1353.81,213.756 1355.569,212.426 
		1359.16,222.565 1359.02,229.096 1359.27,231.076 1358.7,236.775 1359.14,235.205 1362.31,239.295 1363.359,240.315 
		1363.95,241.445 1364.979,247.045 1372.51,254.285 1374.399,254.105 1372.14,244.605 1369.45,241.215 1368.84,240.965 
		1367.46,239.586 1365.84,239.275 1362.79,233.006 1361.06,232.926 1363.18,224.746 1363.39,221.815 1365.74,221.795 
		1365.35,223.886 1367.63,223.836 1370.02,225.065 1371.37,227.815 1372.45,229.205 1374.68,229.596 1376.66,231.105 
		1376.88,234.625 1387.66,226.445 1388.02,221.756 1386.79,216.826 1378.22,206.746 1381.03,202.375 1384.59,200.096 
		1385.85,199.666 1389.43,200.516 1390.97,203.326 1391.88,200.506 1405.49,196.815 1412.87,192.115 1419.45,182.545 
		1420.939,182.306 1422.02,178.025 1421.53,173.065 1417.05,165.955 1414.18,164.485 1419.39,159.846 1423.16,159.105 
		1418.64,156.596 1415.649,158.496 1411.27,156.086 1413.84,152.916 1420.819,148.396 1422.229,149.795 1420.12,151.586 
		1427.819,151.105 1429.069,151.826 1430.81,152.556 1429.01,155.965 1432.91,156.916 1434.729,159.195 1432.75,159.646 
		1433.74,165.875 1440.68,164.025 1441.689,162.565 1438.7,154.615 1436.53,151.565 1442.319,148.565 1442.22,146.656 
		1449.18,142.166 1452.53,143.426 1456.08,141.855 1465.02,134.105 1469.93,128.406 1471.35,120.955 1473.439,118.295 
		1473.35,116.025 1469.5,113.096 1456.77,111.656 1475.62,100.166 1484.39,99.375 1492.54,99.826 1495.84,98.525 1499.99,98.926 
		1499.79,100.855 1509.87,99.886 1507.66,98.246 1514.34,93.775 1521.22,92.875 1523.399,96.156 1530.16,93.226 1531.76,91.025 
		1535,90.806 1532.86,94.565 1518.72,102.786 1514.569,103.386 1512.189,106.215 1510.899,109.916 1514.52,121.565 1518.36,119.085 
		1519.16,116.375 1523.14,115.726 1524.06,112.676 1528.72,111.315 1528.75,107.945 1531.229,107.846 1531.649,99.706 
		1532.51,97.956 1539.86,98.166 1546.8,96.076 1550.62,97.916 1559.55,93.195 1569.37,90.875 1574.34,91.466 1569.489,85.315 
		1576.075,84.531 1583.476,83.091 	"/>
	<polygon fill="#FFFFFF" points="1177.91,279.636 1174.13,271.025 1175.88,272.125 1178.13,277.656 	"/>
	<polygon fill="#FFFFFF" points="1186.899,257.396 1185.189,262.766 1186.25,263.686 1181.66,264.785 1181.359,259.256 
		1182.58,257.695 	"/>
	<polygon fill="#FFFFFF" points="1240.29,158.386 1235.88,159.715 1232.09,159.256 1227.71,157.365 1228.689,150.445 
		1230.89,150.235 1223.16,142.955 1223.42,141.166 1220.99,138.636 1223.64,135.875 1226.229,135.445 1233.02,132.125 
		1238.43,134.295 1237.95,136.896 1233.35,136.936 1233.42,142.565 1236.51,143.476 1237.62,145.936 1242.47,148.386 
		1237.609,148.586 1238.109,152.806 1240.189,153.715 	"/>
	<polygon fill="#FFFFFF" points="1189.67,288.156 1189.069,295.576 1187.88,285.406 	"/>
	<polyline fill="#FFFFFF" points="1042.375,497.294 1576.39,497.294 1576.39,483.194 1565.689,481.724 1558.33,482.404 
		1548.149,480.834 1546.79,479.523 1540.68,478.694 1529.72,476.134 1522.51,473.154 1527.79,468.404 1541.729,467.304 
		1540.68,466.154 1532.38,462.813 1539.319,455.654 1547.84,453.724 1552.95,448.494 1551.069,447.714 1530.239,445.934 
		1520.89,442.904 1507.84,440.144 1506.12,441.023 1493.33,439.674 1485.76,437.584 1484.399,435.754 1481.42,435.544 
		1462.99,435.854 1460.75,435.384 1458.29,432.204 1455.79,433.874 1439.91,435.334 1432.71,434.813 1416,436.694 1407.649,435.074 
		1404.72,435.174 1399.399,432.984 1387.54,435.544 1379.609,435.804 1370.68,432.144 1362.38,436.644 1359.609,436.273 
		1351.88,437.004 1340.71,436.273 1335.59,436.374 1331.1,433.874 1327.81,436.374 1319.88,436.794 1312.31,438.313 
		1305.62,440.504 1303.54,442.544 1295.13,443.374 1285.89,449.544 1279.729,449.754 1277.689,448.914 1280.67,445.784 
		1277.689,445.834 1281.97,443.114 1280.2,438.464 1267.3,437.054 1262.859,438.674 1253.149,436.744 1248.92,433.974 
		1239.47,433.034 1232.37,434.704 1223.02,437.894 1220.52,437.584 1203.24,441.604 1202.3,442.754 1192.95,441.964 
		1186.84,439.984 1181.83,443.063 1168.78,445.204 1159.64,445.364 1136.87,445.054 1135.83,444.054 1125.39,446.204 
		1117.189,443.694 1110.3,445.624 1095.939,448.344 1094.79,447.244 1084.979,447.874 1078.24,446.464 1073.59,448.394 
		1072.29,447.504 1063.78,450.374 1055.37,452.364 1052.189,456.754 1042.375,459.188 	"/>
	<polygon fill="#FFFFFF" points="1479.26,294.246 1479.149,291.766 1476.47,285.985 1473.81,294.065 1474.3,297.656 1472.1,303.855 
		1470.34,304.766 1457.77,297.535 1461.64,290.476 1457.229,290.205 1449.92,288.485 1446.37,290.025 1441.53,295.996 
		1438.729,297.186 1435.28,294.386 1428.12,299.045 1425.6,303.586 1424.479,301.285 1422.42,306.065 1418.729,310.025 
		1411.729,311.865 1400.85,315.546 1398.83,322.556 1398.96,325.855 1404.569,346.825 1403.25,347.186 1407.45,350.926 
		1414.58,349.546 1416.16,348.126 1422.27,348.195 1427.189,346.815 1427.7,345.416 1432.84,343.436 1435.38,343.605 
		1441.87,341.766 1446.64,341.516 1454.5,344.506 1459.069,350.565 1463.92,345.256 1464.14,347.226 1461.31,351.546 
		1467.319,352.806 1469.74,357.256 1479.38,361.006 1481.72,359.075 1486.6,361.615 1491.899,358.346 1496.41,357.315 
		1497.29,352.646 1500.979,345.636 1502.95,344.325 1505.93,332.485 1504.66,330.226 1504.03,324.905 1498.819,320.096 
		1498.359,317.275 1495.56,317.115 1493.35,311.905 1486.79,308.086 1483.819,298.676 1484.09,297.496 1480.22,296.336 	"/>
	<polygon fill="#FFFFFF" points="1484.149,366.296 1482.41,366.056 1484.24,371.365 1485.89,373.646 1489.93,372.016 
		1491.859,366.516 1486.729,367.216 	"/>
	<polygon fill="#FFFFFF" points="1402.05,244.485 1400.99,245.485 1399.689,247.176 1397.77,249.285 1388.89,252.205 
		1387.31,253.976 1388.649,261.056 1390.38,265.375 1395.3,266.826 1398.47,265.865 1402.76,268.496 1405.78,267.295 
		1407.28,261.516 1409.84,259.695 1410.609,255.455 1413.77,255.146 1410.78,252.676 1409.28,248.926 1410.8,246.525 
		1410.29,241.586 1410.16,240.436 1406.37,241.176 1404.319,243.025 	"/>
	<polygon fill="#FFFFFF" points="1390.689,207.756 1391.88,204.025 1386.13,205.916 1386.2,208.215 1388.39,209.035 	"/>
	<polygon fill="#FFFFFF" points="1130.38,109.306 1129.53,107.965 1125.62,108.855 1128.78,111.465 	"/>
	<polygon fill="#FFFFFF" points="1122.04,145.186 1121.58,142.896 1119.939,146.695 	"/>
	<polygon fill="#FFFFFF" points="1088.54,101.246 1083.189,101.255 1080.16,106.176 1081.66,110.105 1088.7,113.636 
		1088.31,115.186 1084.34,114.945 1085.29,118.125 1082.51,118.956 1085.06,121.035 1081.149,123.836 1086.91,123.656 
		1094.45,122.195 1098.02,122.215 1100.42,120.826 1101.03,116.956 1097.8,116.445 1095.399,112.355 1088.24,108.335 
		1091.33,103.775 1085.689,104.125 	"/>
	<polygon fill="#FFFFFF" points="1081.46,112.116 1078.6,110.476 1070.72,113.916 1072.109,116.625 1069.95,119.406 
		1073.729,119.815 1078.45,118.235 1080.47,115.855 	"/>
	<polygon fill="#FFFFFF" points="1159.729,162.365 1159.24,163.506 1166.3,164.235 1166.63,163.445 	"/>
	<polygon fill="#FFFFFF" points="1454.149,260.625 1449.45,258.535 1444.49,260.056 1449.05,263.445 1452.96,263.455 
		1448.41,265.065 1456.87,269.445 1464.24,271.926 1466.21,277.065 1463.399,279.976 1470.14,279.666 1472.52,281.855 
		1478.859,281.496 1478.52,279.535 1482.41,277.896 1485.89,279.056 1490.859,284.556 1495.84,285.256 1488.34,275.465 
		1490.149,273.766 1485.71,272.125 1481.979,267.846 1465.31,262.086 1459.88,263.705 1457.649,266.525 1454.89,264.936 	"/>
	<polygon fill="#FFFFFF" points="1444.359,265.795 1438.13,265.136 1437.5,266.596 1443.08,266.735 	"/>
	<polygon fill="#FFFFFF" points="1439.609,254.535 1436.17,254.855 1436.96,258.266 	"/>
	<polygon fill="#FFFFFF" points="1435.77,266.775 1435.109,265.896 1432.41,266.025 	"/>
	<polygon fill="#FFFFFF" points="1430.42,253.766 1427.319,255.105 1418.81,254.065 1416.54,256.045 1413.16,265.016 
		1417.59,272.285 1417.26,265.365 1421.08,270.485 1424.899,270.035 1420.47,262.625 1425.35,259.195 1420.38,260.096 
		1418.939,261.306 1416.55,258.936 1416.93,256.916 1426.27,256.926 	"/>
	<polygon fill="#FFFFFF" points="1428.27,284.586 1436,279.936 1432.3,280.025 1427.06,282.315 1425.99,285.166 	"/>
	<polygon fill="#FFFFFF" points="1424.189,279.125 1416.229,280.065 1423.8,280.605 	"/>
	<polygon fill="#FFFFFF" points="1418.35,284.846 1416.18,282.506 1413.689,283.025 	"/>
	<polygon fill="#FFFFFF" points="1410.85,279.136 1407.76,281.636 1414.12,280.756 	"/>
	<polygon fill="#FFFFFF" points="1386.12,275.615 1382.5,273.426 1379.26,273.266 1377.43,275.815 1380.33,277.156 1391.35,279.205 
		1399.02,279.806 1401.96,280.886 1405,279.865 1401.729,278.285 1397.729,277.795 1396.76,276.065 1391.81,274.785 
		1391.229,275.886 	"/>
	<polygon fill="#FFFFFF" points="1378.64,273.156 1379.41,265.715 1372.29,259.445 1373.359,257.275 1367.55,251.996 
		1364.84,251.955 1356.42,243.565 1350.58,242.945 1350.819,244.295 1357,251.016 1359.399,252.686 1365.54,263.016 
		1370.02,268.806 1375.689,273.205 	"/>
	<polygon fill="#FFFFFF" points="1137.92,155.636 1130.06,155.916 1129.689,157.285 1136.8,159.926 	"/>
	<polygon fill="#FFFFFF" points="1121.1,147.695 1118.91,149.916 1119.02,153.125 1122.33,153.115 1122.7,149.586 	"/>
	<polygon fill="#FFFFFF" points="1480.189,139.795 1475.01,136.115 1473.439,141.886 1470.59,142.035 1469.64,146.735 
		1472.609,146.695 1474.06,143.775 1478.25,145.596 1480.58,142.955 1484.54,142.226 1483.95,139.226 	"/>
	<polygon fill="#FFFFFF" points="1472.359,158.535 1472.319,155.785 1474.79,153.105 1473.41,147.246 1469.91,152.416 
		1462.81,159.375 1461.03,158.105 1458.24,162.846 1455.39,162.295 1450.08,163.096 1444.05,167.965 1441.53,168.785 
		1444.3,171.396 1443.64,173.795 1446.66,173.715 1448.439,169.176 1445.729,167.215 1456.64,165.326 1458.55,168.346 
		1462.34,165.295 1467.03,165.136 1470.439,163.875 	"/>
	<polygon fill="#FFFFFF" points="1455.47,166.516 1450.899,166.756 1449.399,169.605 1451.14,170.365 	"/>
	<polygon fill="#FFFFFF" points="1313.06,241.035 1314.58,237.496 1310.21,231.365 1309,235.686 1310.74,241.636 	"/>
	<polygon fill="#FFFFFF" points="1229.99,293.686 1227.689,289.646 1226.76,292.445 1216.359,300.686 1213.75,303.965 
		1215.08,309.365 1211.859,316.355 1213.95,324.166 1219.93,324.676 1222.1,324.035 1228.34,305.405 1229.47,298.646 
		1230.37,300.205 	"/>
	<polygon fill="#FFFFFF" points="1164.39,43.206 1157.649,42.536 1154.95,43.335 1157.93,45.886 1165.66,45.576 1169.609,44.136 	
		"/>
	<polygon fill="#FFFFFF" points="1162.46,50.005 1157.55,48.405 1152.03,48.936 1156.5,51.096 	"/>
	<polygon fill="#FFFFFF" points="1145.21,45.085 1141.84,44.155 1133.12,45.195 1131.66,44.255 1124.39,45.216 1126.47,47.306 
		1131.66,49.556 1135.66,50.326 1133.24,51.275 1138.97,52.896 1142.18,52.795 1143.45,50.585 1147.27,48.116 	"/>
	<polygon fill="#FFFFFF" points="1562.03,353.936 1561.28,351.565 1556.76,349.596 1562.26,357.205 1561.93,360.976 1563.7,368.686 
		1565.76,367.626 1572.439,358.035 1565.62,357.666 1565.22,355.646 	"/>
	<polygon fill="#FFFFFF" points="1557.79,366.636 1555.33,366.735 1552.729,370.886 1545.21,375.176 1541.86,377.806 
		1545.5,381.825 1551.38,379.936 1552.89,377.235 1557.95,374.455 1556.96,373.176 1561.06,368.905 	"/>
	<polygon fill="#FFFFFF" points="1433.439,235.115 1430.87,231.535 1431.03,233.596 1426.689,235.586 1425.74,234.375 
		1421.56,238.375 1426.069,236.666 1427.76,237.926 1427.689,241.125 1430.83,242.676 1431.99,238.105 1432.96,240.826 	"/>
	<polygon fill="#FFFFFF" points="1431.109,225.125 1427.819,224.076 1429.25,230.535 1431.859,228.105 	"/>
	<polygon fill="#FFFFFF" points="1419.97,208.226 1417.21,214.806 1419.45,221.195 1421.87,220.806 1427.319,224.136 
		1426.979,220.815 1420.46,217.235 1423.149,211.985 	"/>
	<polygon fill="#FFFFFF" points="1427.06,230.146 1422.79,231.656 1424.43,233.496 	"/>
	<polygon fill="#FFFFFF" points="1420.52,222.705 1419.59,221.746 1417.31,221.656 	"/>
	<polygon fill="#FFFFFF" points="1412.46,232.715 1415.62,229.416 1413.75,229.886 1408.91,235.246 	"/>
	<polygon fill="#FFFFFF" points="1512.09,275.735 1508.45,271.256 1509.03,273.285 	"/>
	<polygon fill="#FFFFFF" points="1501.71,272.156 1500.81,270.235 1495.649,274.386 	"/>
	<polygon fill="#FFFFFF" points="1498.37,57.396 1486.71,56.295 1486.069,57.155 1495.29,58.445 	"/>
	<polygon fill="#FFFFFF" points="1483.319,56.116 1473.68,54.706 1463.13,55.085 1461.7,56.916 1466.979,58.655 1471.399,58.025 
		1481.22,58.096 	"/>
	<polygon fill="#FFFFFF" points="1479.49,122.266 1478.45,116.956 1474.25,115.456 1474.01,119.105 1475.569,121.726 
		1474.84,127.306 1475.34,135.016 1479.18,132.695 1476.58,129.965 1478.22,126.105 1482.17,126.985 	"/>
	<polygon fill="#FFFFFF" points="1479.37,62.386 1475.26,60.666 1471.93,60.905 1475.33,62.396 	"/>
	<polygon fill="#FFFFFF" points="1376.66,48.806 1377.45,47.716 1366.5,46.326 1361.63,49.826 	"/>
	<polygon fill="#FFFFFF" points="1362.97,47.266 1363.63,44.875 1357.49,42.295 1352.31,40.956 1346.54,41.556 1339.62,43.375 
		1343.26,43.905 1345.3,45.815 1357.149,47.605 	"/>
	<polygon fill="#FFFFFF" points="1249.93,69.025 1244.83,66.835 1244.29,64.625 1252.439,59.456 1260.72,56.926 1278.31,54.326 
		1278.24,52.445 1268.49,53.775 1259.62,54.275 1244.85,57.396 1245.569,58.605 1239.189,60.945 1241.64,61.275 1236.359,63.545 
		1234.109,67.016 1238.939,67.726 1239.64,68.916 	"/>
	<polygon fill="#FFFFFF" points="1528.729,285.496 1526.6,284.756 1527.61,286.396 	"/>
	<polygon fill="#FFFFFF" points="1527.56,283.146 1525.53,279.726 1524.62,279.726 	"/>
	<polygon fill="#FFFFFF" points="1525.35,283.865 1522.29,282.195 1522.12,283.246 	"/>
	<polygon fill="#FFFFFF" points="1516.52,277.136 1513.859,275.146 1513.72,275.586 	"/>
	<polygon fill="#FFFFFF" points="1419.58,196.795 1420.43,190.115 1418.3,192.136 1418.439,198.985 	"/>
</g>
<g>
	<g id="tpp_1_">
		<path fill="#34BDB4" d="M1720.675,123.681 M1906.274,122.631l0.701-2.52l-2.311,0.92l-6.74,9.82l8.04-0.07l8.479,2.6l1.121-2.34
			l-3.03-2.62l0.819-1.95l-8.85-1.5L1906.274,122.631z M1700.886,113.351l0.329,2.02l2.681,1.14l0.799-3.03L1700.886,113.351z
			 M1828.896,82.73l-1.931-0.22l-3.569,5.86l3.619-0.26l0.91,1.561l6.44-2.8l5.64,1.84l-1.73-2.78L1828.896,82.73z M1853.675,78.75
			l2-2.3l-2.08-0.73l-2.91,3.16L1853.675,78.75z M1800.935,73.531l-6.85-2.76l-4.21,1.98l3.64,1.2l5.771,0.51L1800.935,73.531z
			 M1680.075,71.921L1680.075,71.921l-0.02,9.89l-0.011,15.18l2.62,0.08l2.6,0.74l1.86,1.16l2.37,1.76l5.27-2.36l3.211,2.47
			l2.439,1.21l1.67,1.91l2.721,3.04l4.539,1.7l0.07,1.68l-1.48,1.28l0,0l0.051,1.38l3.229,1.93l0.47,2.15l3.41,1.14l1.1,3.99
			l11.9,4.87l0.35,0.01h7.57h66.23l1.38,0.43l13.431,2.21l0,0l1.09-1.05l2.699-1.42l5.85,2.47l2.99,0.4l1.25,2.89l-0.56,0.89v0.01
			l0.72,0.08l0.5-0.39l9.09,1.74l2.601,2.87l-4.03,0.55l-1.359,3.49l-1.721,0.88l0,0l-1.25,1.47l-0.59,0.93l1.46,0.17l3.94-1.72
			l1.459,0.27l4.341-1.08l0,0l0,0l-0.24-0.8l-0.13,0.03l-1.08-1.03l4.95-1.06l3.34-0.26l0.03,0.04l2.73-1.86l10.159-0.51
			l11.649-0.34l2.961-0.33l4.26-0.08l-4.62,2.2l0.101,2.26l2.02,0.19l11.529-4.58l3.301-1.75l-1.91-2.9l-2.67,3l-4.41,0.38
			l-3.46-1.33l-1.71-4.88l2.51-1.79l-2.359-1.31l-3.99,0.27l-5.59,2.22l-4.28,3.5l4.649-5.55l5.631-3.09l12.47,0.39l4.5-0.43
			l3.36-2.19l8.24-2.89l-0.19-2.99l-16.11-8.18l1.07-1.68l-8.5-8.98l-4.311,4.18l-3.859,1.48l-4.37-1.98l-0.8-5.61l-4.76-0.2
			l-6.57-3.49l-2.21,0.7l-7.31-0.98l-1.861,0.61l2.061,6.58l-3.15,2.79l3.24,2.01l0.551,5.9l-7.291,3.12l1.881,1.41l1.39,4.21
			l-3.489,3.6l-3.971-2.53l-2.76-5.66l0.439-2.31l-7.3-0.41l-15.69-5.28l-3.739,0.52l-2.44-4.52l-3.92-0.44l4.07-8.2l3.26-2.16
			l3.109-0.33l9.181-4.84l4.149-4.76l6.461,0.4l5.22-1.87l-1.54-2.72l-9.63-1.74l-4.729,4.23l-2.58-1.8l0.799-1.98l-3.189-1.71
			l-3.561,2.09l0.011-2.73l-2.591-1.85l-9.84-4.61l-3.149,1.93l-0.21,2.95l5.96,2.72l-1.2,2.68l-10.33-0.91l0.311,1.66l-8.03,0.36
			l-4.71-1.2l-2.971,0.21l-2.68-1.44l-7.529-0.25l1,2.04l-2.9,1.35l-2.84-1.6l-9.471,0.78l-4.819-0.57l3.75-1.32l-3.591-1.35
			l-12.52-1.26l-4.08-1.12l-7.51,1.06l-0.359-2.02l-3.551,1.8l-4.51-2.39l-4.42,1.6l-1.84-1.11l-8.35,1.84l-3.961-0.33l-8.35,1.7
			l-4.2-1.28L1680.075,71.921z M1751.565,62.831l-13.95,4.16l2.579,1.74l16.041,1.44l9.109,4.229l5-0.9l12.51,0.97l-0.799-2
			l4.379-0.21l0.291-1.18l-9.291-2.58l-8.59-2.86l-1.34,1.11l-4.619-3.49l-3.011,1.36l-3.7-1.35L1751.565,62.831z M1852.405,62.881
			l-4.59-1.47l-7.391-0.11l3.6,2.54L1852.405,62.881z M1825.155,62.73l1.96-1.72l-6.88,0.71l-4.791,3.47l0.851,2.7l1,1.23
			l32.591,2.64l2.819,1.66l-1.71,0.68l5.4,0.9l5.85,3.39l-3.49,4.88l-10.5,0.38l-1.75,1.97l2.25,0.91l7.71-0.42l7.82,1.89
			l-0.931,0.75l8.951,2.85l7.229,1.06l-6.979-4.84l10.049,2.86l0.91-1.92l-9.25-6.12l0.34-1.53l3.44-0.33l7.479,3.7l4.681-3.09
			l0.83-1.88l-4.2-0.17l-3.83-2.45l-10.51-2.33l4.891-1.24l-11.271-4.62l-2.78-1.7l-4.949,0.6l-17.73-1.95l0.4-1.74l-4.58-2.76
			l-6.75,1.1l-2.471,2.14L1825.155,62.73z M1788.386,60.9l-3.15,1.29l2.93,1.75l-5.439-0.33l-0.051,0.85l11.03,3.3l4.37-1.04
			l0.48-2.39L1788.386,60.9z M1807.476,63.761l3.18-0.52l3.98-2.37l-10.65-0.74l-4.08,3.18l1.67,2.34l3.04,0.1L1807.476,63.761z
			 M1734.795,67.46l3.3-3.03l9.891-2.54l-5.45-1.9l-10.62-0.7l-9.01,0.42l2.609,1.63l-5.3,4.83l6.15,1.41l1.409,1.17L1734.795,67.46
			z M1793.335,53.241l-10.84,1.02l0.17,2.06l4.37-0.21l2.81,1.98l4.4-0.27L1793.335,53.241z M1767.444,54.621l-6.09-0.61l3.811,2.55
			l-4.66-0.2l-4.73-1.58l-7.51-0.9l-6.14,3.35l3.729,0.47l12.041-0.31l14.609,0.42l1.15-2.57L1767.444,54.621z M1803.505,52.23
			l-5.49-0.17l2.08,1.92l5.521,0.32l3.92,3.95l7.09,0.86l17.42-0.13l3.41,0.33l5.04-2.39l-2.85-1l-9.76,0.04l-4.24,0.57l-12.24-1.57
			l-1.69-1.88l-5.25,0.01L1803.505,52.23z M1746.155,50.771l-7.75,0.35l-5.471,1.73l-0.91,2.57l4.261-0.41l9.5-2.19L1746.155,50.771
			z M1762.175,50.631l0.891-0.8l-9.811,0.71l3.95,0.86L1762.175,50.631z M1763.575,48.221 M1800.455,49.671l0.72-0.96l-8.189-1.21
			l0.209,1.1L1800.455,49.671z M1789.175,48.96l-2.039-1.27l-12.441-1.34l0.841,2.46l5.94,0.1l8.739,1.16L1789.175,48.96z
			 M1832,45.5l-6-3.833l-13.523-2.286l-7.941,2.51l-6.431,2.18l10.221,4.84l10.24,0.15l8.102-0.561L1832,45.5z M1873.306,36.21
			l-19.24,0.11l-1.42-0.28l-16.44,0.83l-2.03,1.44l-6.189-0.89l-3.91,0.99l-12.311,1.03l0.58,0.91l10.051,2.77l6.67,3.12
			l-7.641,2.59l4.33,0.51l3.631,1.71l-12.371,1.57l0.34,1.28l16.83,0.04l6.971,0.74l7.119-1.6l0.011-2.99l6.649-1.67l-4.039-2.12
			l8.069-0.29l7.2-0.99l4.561-2.17l10.629-2.37l-5.799,0.01l15.359-2.29l0.12-0.72L1873.306,36.21z"/>
		<path fill="#34BDB4" d="M1875.806,404.03h-2.851v-5.96l-6.601,3.84l-5.799-0.31l6.069,2.92l7.62,1.49l3.17-1.91L1875.806,404.03z
			 M1870.405,304.621l-0.721,1.369l-1.369,0.681l0.56,3.75l0.19,4.37l-2.17,16.649l-1.561,3.25l-0.47,5.49l0.61,4l-4.61,12.54
			l-1.12,0.09l0.99,5.6l-1.23,1.82l-1.74,8.75l1.68,0.38l0.83-3.33l1.791,0.71l-1.391,5.521l-2.97-0.93l-0.899,4.42l-2.541,2.359
			l4.041,0.78l-2.811,2.06l-1.141,2.561l1.771,9.57l6.37,3.38l10.62-3.28l-2.47-0.42l-6.44-0.36l-1.05-3.55l-2.95-3.62l2.04-1.17
			l3.16-13.58l-1.82-4.08l1.07-0.54l0.89-8.359l1.591-0.971l-0.82-5.05l2.02-1.74l1.46-4.83l-1.909-7.539l1.639-2.74l2.451-7.51
			l1.879-1.66l-0.33-6.34l2.91-1.32l-3.81-9.74l0.84-2.57l-1.76-3.06L1870.405,304.621z"/>
		<path fill="#34BDB4" d="M1841.845,266.83l-2.949,3.551l0.42,3.73l5.899,6l8.07,16.699l2.06,1.641l10.07,5.59l0.23,1.1l2.67,1.53
			l1.369-0.681l0.721-1.369l1.68-2.881l-1.02-4.119l1.8-6.381l-2.3-4.289l-2.721,0.149l0.18-4.05l-4.539,1.51l-3.7-4.35l-0.399-4.01
			l1.609-0.771l0.6-3.61l3.051-1.82l4.949-0.789l-1.34-1.41l0.93-2.78l-2.039-1.25l-6.021,0.14l-1.569-2.789l-11.141,4.64
			l-3.65,5.22l-2.6-3.04L1841.845,266.83z"/>
		<path fill="#34BDB4" d="M1851.168,137.501l1.237,2.64l0.27,0.38l0.16,1.03l-6.279,0.56l-1.261,0.31l0.24,0.8l0,0l0.05,0.26
			l-9.189,3.82l-2.061-1.72l0,0l0.59-0.93l1.25-1.47l0,0l0,0l-4.4-6.96l-2.27-0.53l-4.1,4.55l0.68,4.53l-3.25,1.98l-1.25-4.24
			l1.109-3.36l-1.34-0.64l4.451-2.93l6.609-0.48l-1.32-1.06l0,0l-0.72-0.08v-0.01v0.01l-6.36-0.03l-3.39-1.36l0.86-1.4l-6.551,2.42
			l-4.31-0.36l6.431-3.46l0,0l0,0l-0.555-11.937L1800.834,119l-63.074,2.167 M1737.76,121.167l-12.426-0.667l3.11,6.631l0.91,2.19
			l-5.51-0.54l1.78,7.62l-1.69,7.35l2.15,10.17l7.95,10.11l7.47,4.1l2.17,2.89l3.03-0.2l13.239,3.4l7.421-1.12h4.62l9.06,7.43
			l1.681-2.11l2.18-0.05l9.119,9.91l1.891,0.59l1.04-0.08l4.11-7.65l2.43-1.97l8.16-0.53l3.93,1.49l4.63-3.37l5.38-0.04l9.99,4.93
			l-0.55,1.77l3.06,5.37l3.541,1.77l0.869-4.46l-3.83-10.26l3.17-4.75l12.2-8.11l-2.18-8.44l2.19,2.08l4.689-6.64l5.38-1.34h-4.71
			l6.91-1.5l2.67-5.84l8.41-3l-0.461-0.87l-1.75-1.51 M1648.035,105.5l1.17-2.1l-5.61,1.18l0.41,1.24L1648.035,105.5z
			 M1684.166,73.833l-4.091-1.913l0,0l0,0l-2.9-0.38l-4.039-0.8l-10.73-0.16l-23.9-3.05l-6.561,1.24l-10.369,2.76l-4,2.51
			l-4.73,0.09l-1.49,1.39l13.561,5.98l-5.63,0.11l0.37-1.33l-11.891,2.41l3.381,1.55l10.89,2l3.31-0.17l-0.05,2.53l-8.069,0.82
			l-4.16,4.39l6.14,4.54l3.47-0.51l1.461,3.51l7.76,0.66l5.379-1.32l-1.819,3.6l-6.261,3.07l-4.619,1.39l-8.36,3.53l4.99-0.32
			l7.41-2.54l1.829,0.21l3.961-2.4l12.88-6.4l-1.95-1.29l6.95-3.67l-0.81,4.19l9.85-2.19l-0.551-1.86l2.961-0.56l8.41,2.36
			l3.699-0.23l7.211,1.46l5.51,2.77l9.93,1l1.43,2.52l3.44,2.15l0.75,2.33l3.819,1.85l0,0l4.898-0.327"/>
	</g>
	<path fill="#34BDB4" d="M1484.149,366.296l-1.739-0.24l1.83,5.31l1.649,2.28l4.04-1.63l1.93-5.5l-5.13,0.7L1484.149,366.296z
		 M1479.26,294.246l-0.11-2.48l-2.68-5.78l-2.66,8.08l0.49,3.591l-2.2,6.199l-1.76,0.91l-12.57-7.23l3.87-7.06l-4.41-0.271
		l-7.31-1.72l-3.55,1.54l-4.84,5.971l-2.801,1.189l-3.449-2.8l-7.16,4.659l-2.521,4.541l-1.12-2.301l-2.06,4.78l-3.69,3.96l-7,1.84
		l-10.88,3.681l-2.02,7.01l0.13,3.3l5.609,20.97l-1.319,0.36l4.2,3.74l7.13-1.38l1.58-1.42l6.109,0.069l4.92-1.38l0.511-1.399
		l5.14-1.98l2.54,0.17l6.49-1.84l4.77-0.25l7.86,2.99l4.569,6.06l4.851-5.31l0.22,1.97l-2.83,4.32l6.01,1.26l2.421,4.45l9.64,3.75
		l2.34-1.931l4.88,2.54l5.3-3.27l4.511-1.03l0.88-4.67l3.689-7.01l1.971-1.311l2.979-11.84l-1.27-2.26l-0.63-5.32l-5.211-4.81
		l-0.46-2.82l-2.8-0.16l-2.21-5.21l-6.56-3.819l-2.971-9.41l0.271-1.18l-3.87-1.16L1479.26,294.246z"/>
	<path fill="#34BDB4" d="M1402.21,246.865l0.56-0.91l1.271,0.09l0.16-1.699l0.119-1.32l-2.27,1.46l-1.06,1L1402.21,246.865z"/>
	<path fill="#34BDB4" d="M1390.689,207.756l1.19-3.73l-5.75,1.891l0.07,2.299l2.189,0.82L1390.689,207.756z M1368.92,197.666
		l6.14-0.951l2.28-1.42l4.57,4.111l2.68,0.689l1.26-0.43l3.58,0.85l1.54,2.811l0.91-2.82l13.61-3.69l7.38-4.7l6.58-9.57l1.489-0.239
		l1.08-4.28l-0.489-4.96l-4.48-7.11l-2.87-1.47l5.21-4.64l3.771-0.74l-4.521-2.51l-2.99,1.9l-4.38-2.41l2.57-3.17l6.979-4.521
		l1.41,1.399l-2.109,1.791l7.699-0.48l2.171-1.71l4.77-3.319l7.271-1.621l1.06-1.49l3.07,0.141l-0.32-5.43l5.52-0.471l5.141-8.89
		l-10.76,1.841l-1.08-2.511l-3.16-1.89l-4.641-0.86l-4.56-8.08l-2.34-0.98l-10.84-0.24l-2.2,1.32l0.01,2.96l-6.14,5.69l-3.2-1.01
		l-3.18,4.68l6.87,0.181l4.27,3.66l-2.11-0.301l-14.42,5.32l-4.239-0.78l-1.98,4.521l-1.91,1.43l-11.42,1.96l-3.1,1.44l-8.351-2.451
		l-14.62-0.559l-4.43-4.341l-3.22-1.659l-7.72-1.98l1.029-3.12l-1.84-2.149l-6.04-2.41l-5.99,0.379l-1.609,3.881l-5.29-0.881
		l-1.92,4.781l-6.65,1.649l2.4,4.64l-10.561,5.631l-1.01,1.699l-4.66,0.17l-2.939,2.49l3.17,2.811l0.79,3.319l2.75,3.29l4.39,1.08
		l2.86,3.12l-1.21,4.54l0.75,2.939l6.33,3.551l1.1-0.641l11.46,5.92l7.75,0.311l3.42-0.561l4.48,1.4l2.149-0.33l5.5-3.68
		l4.141-0.471l6.81,9.42l-2.53,2.23l-0.319,3.16l2.819-0.439l2.32,2.969l-0.771,2.211l3.131,1.49l1.96-0.771l1.739,1.8l-0.409-3.05
		L1368.92,197.666z"/>
	<path fill="#34BDB4" d="M1455.47,166.516l-4.57,0.24l-1.5,2.85l1.74,0.76L1455.47,166.516z M1472.359,158.535l-0.04-2.75
		l2.471-2.68l-1.38-5.859l-3.5,5.17l-7.101,6.959l-1.779-1.27l-2.79,4.74l-2.851-0.551l-5.31,0.801l-6.03,4.869l-2.52,0.82
		l2.77,2.61l-0.66,2.399l3.021-0.08l1.779-4.539l-2.71-1.961l10.91-1.889l1.91,3.02l3.79-3.051l4.69-0.159l3.409-1.261
		L1472.359,158.535z M1480.189,139.795l-5.18-3.68l-1.57,5.771l-2.85,0.149l-0.95,4.7l2.97-0.04l1.45-2.92l4.19,1.82l2.33-2.641
		l3.96-0.729l-0.59-3L1480.189,139.795z"/>
	<path fill="#34BDB4" d="M1380.45,218.705l-1.21,1.84l-2.2-1.039l-2.5-0.391l-3.44,0.51l-1.71,2.221l0.63,3.22l1.351,2.75l1.08,1.39
		l2.229,0.391l2.311-1.07l2.8-0.199l-1.17-1.611l4.479-2.049l-0.29-4.98L1380.45,218.705z"/>
	<path fill="#34BDB4" d="M1363.359,240.315l0.591,1.13l1.029,5.6l7.53,7.24l1.89-0.18l-2.26-9.5l-2.689-3.391l-0.61-0.25
		l-0.87,1.091l-1.76,0.319l-0.21-1.369l-2.181-1.16L1363.359,240.315z M1404.319,243.025l-0.119,1.32l-0.16,1.699l-1.271-0.09
		l-0.56,0.91l-1.22-1.38l-1.301,1.69l-1.92,2.109l-8.88,2.92l0.44,1.78l5.25,1.15l1.55-1.341l5.979-0.06l3.311-7.67l3.07,0.011
		l2.31,0.449l-0.51-4.939l-0.13-1.15l-3.79,0.74L1404.319,243.025z"/>
	<path fill="#34BDB4" d="M1557.79,366.636l-2.46,0.1l-2.601,4.15l-7.52,4.29l-3.35,2.63l3.64,4.02l5.88-1.89l1.51-2.7l5.061-2.78
		l-0.99-1.279l4.1-4.271L1557.79,366.636z M1562.03,353.936l-0.75-2.37l-4.521-1.97l5.5,7.609l-0.33,3.771l1.771,7.71l2.06-1.06
		l6.68-9.591l-6.819-0.369l-0.4-2.021L1562.03,353.936z"/>
	<path fill="#34BDB4" d="M1377.91,218.295l0.12-2.25l-2.16-2.33l-0.17-2.629l-2.021-2.16l-7.729,1.939l0.6-5.199l-1.96-1.721
		l-6.12,1.07l-2.34,3.359l4.08,6.051l0.51,6.26l1.311,5.16l-1.461,2.49l-1.3,2.74l-0.569,5.699l0.439-1.57l3.17,4.09l1.05,1.021
		l0.46-0.47l2.181,1.16l0.21,1.369l1.76-0.319l0.87-1.091l-1.38-1.379l-1.62-0.311l-3.05-6.27l-1.73-0.08l2.12-8.18l0.21-2.931
		l2.351-0.021l-0.391,2.091l2.28-0.05l2.39,1.229l-0.63-3.22l1.71-2.221l3.44-0.51l2.5,0.391L1377.91,218.295z"/>
	<path fill="#34BDB4" d="M1381.91,199.406l-4.57-4.111l-2.28,1.42l-6.14,0.951l1.55,2.1l1.2,2.43l3.28,0.02l1.04,2.32l-2.471,1.66
		l3.19,1.59l5.91,7.36l0.68,1.88l-0.49,2.66l0.29,4.98l-4.479,2.049l1.17,1.611l-2.8,0.199l-2.311,1.07l1.98,1.51l0.22,3.52
		l10.78-8.18l0.359-4.689l-1.229-4.93l-8.57-10.08l2.811-4.371l3.56-2.279L1381.91,199.406z"/>
</g>
<circle fill="none" stroke="#FFFFFF" stroke-width="0.6" stroke-miterlimit="10" cx="1625.031" cy="235.246" r="72.17"/>
<path fill="none" stroke="#FFFFFF" stroke-width="0.6" stroke-linejoin="round" d="M1975.531,497.74v-1.34v-1.33v-1.33v-1.33v-1.34
	v-1.33v-1.33v-1.34v-1.33v-1.33v-1.33v-1.34v-1.33v-1.33v-1.34v-1.33v-1.33v-1.34v-1.33v-1.33v-1.33v-1.34v-1.33v-1.33v-1.34v-1.33
	v-1.33v-1.33v-1.34v-1.33v-1.33v-1.34v-1.33v-1.33v-1.33v-1.34v-1.33v-1.33v-1.34v-1.33v-1.33v-1.33v-1.34v-1.33v-1.33v-1.34v-1.33
	v-1.33v-1.33v-1.34v-1.33v-1.33v-1.34v-1.33v-1.33v-1.34v-1.33v-1.33v-1.33v-1.34v-1.33v-1.33v-1.34v-1.33v-1.33v-1.33v-1.34v-1.33
	v-1.33v-1.34v-1.33v-1.33v-1.33v-1.34v-1.33v-1.33v-1.34v-1.33v-1.33v-1.33v-1.34v-1.33v-1.33v-1.34v-1.33v-1.33v-1.34v-1.33v-1.33
	v-1.33v-1.34v-1.33v-1.33v-1.34v-1.33v-1.33v-1.33v-1.34v-1.33v-1.33v-1.34v-1.33v-1.33v-1.33v-1.34v-1.33v-1.33v-1.34v-1.33v-1.33
	v-1.33v-1.34v-1.33v-1.33v-1.34v-1.33v-1.33v-1.33v-1.34v-1.33v-1.33v-1.34v-1.33v-1.33v-1.34v-1.33v-1.33v-1.33v-1.34v-1.33v-1.33
	v-1.34v-1.33v-1.33v-1.33v-1.34v-1.33v-1.33v-1.34v-1.33v-1.33v-1.33v-1.34v-1.33v-1.33v-1.34v-1.33v-1.33v-1.33v-1.34v-1.33v-1.33
	v-1.34v-1.33v-1.33v-1.34v-1.33v-1.33v-1.33v-1.34v-1.33v-1.33v-1.34v-1.33v-1.33v-1.33v-1.34v-1.33v-1.33v-1.34v-1.33v-1.33v-1.328
	v-1.342v-1.33v-1.328v-1.342v-1.33v-1.329v-1.33v-1.34v-1.33v-1.33v-1.34v-1.33v-1.33v-1.33v-1.34v-1.33v-1.33v-1.34v-1.33v-1.33
	v-1.34v-1.33v-1.33v-1.33v-1.34v-1.33v-1.33v-1.34v-1.33v-1.33v-1.33v-1.34v-1.33v-1.33v-1.34v-1.33v-1.33v-1.33v-1.34v-1.33v-1.33
	v-1.34v-1.33v-1.33v-1.33v-1.34v-1.33v-1.33v-1.34v-1.33v-1.33v-1.34v-1.33v-1.33v-1.33v-1.34v-1.33v-1.33v-1.34v-1.33v-1.33v-1.33
	v-1.34v-1.33v-1.33v-1.34v-1.33v-1.33v-1.33v-1.34v-1.33v-1.33v-1.34v-1.33v-1.33v-1.33v-1.34v-1.33v-1.33v-1.34v-1.33v-1.33v-1.33
	v-1.34v-1.33v-1.33v-1.34v-1.33v-1.33v-1.34v-1.33v-1.33v-1.33v-1.34v-1.33v-1.33v-1.34v-1.33v-1.33v-1.33v-1.34v-1.33v-1.33v-1.34
	v-1.33v-1.33v-1.33v-1.34v-1.33v-1.33v-1.34v-1.33v-1.33v-1.33v-1.34v-1.33v-1.33v-1.34v-1.33v-1.33v-1.33v-1.34v-1.33v-1.33v-1.34
	V99.2v-1.33v-1.34V95.2v-1.33v-1.33V91.2v-1.33v-1.33V87.2v-1.33v-1.33v-1.33v-1.34v-1.33v-1.33v-1.34v-1.33v-1.33v-1.33v-1.34
	v-1.33v-1.33v-1.34v-1.33v-1.33v-1.33v-1.34v-1.33v-1.33v-1.34v-1.33v-1.33v-1.34v-1.33v-1.33v-1.33v-1.34v-1.33v-1.33v-1.34v-1.33
	v-1.33v-1.33v-1.34v-1.33v-1.33v-1.34v-1.33v-1.33v-1.33v-1.34v-1.33v-1.33v-1.34v-1.33v-1.33v-1.33v-1.34v-1.33v-1.33v-1.34"/>
<path fill="none" stroke="#FFFFFF" stroke-width="0.6" stroke-linejoin="round" d="M1548.29,497.681"/>
<line fill="none" stroke="#FFFFFF" stroke-width="0.6" stroke-linejoin="round" x1="1949.594" y1="17.89" x2="1949.594" y2="497.74"/>
<line fill="none" stroke="#FFFFFF" stroke-width="0.6" stroke-linejoin="round" x1="1923.656" y1="17.89" x2="1923.656" y2="497.74"/>
<line fill="none" stroke="#FFFFFF" stroke-width="0.6" stroke-linejoin="round" x1="1897.72" y1="17.89" x2="1897.72" y2="497.74"/>
<line fill="none" stroke="#FFFFFF" stroke-width="0.6" stroke-linejoin="round" x1="1871.782" y1="17.89" x2="1871.782" y2="497.74"/>
<line fill="none" stroke="#FFFFFF" stroke-width="0.6" stroke-linejoin="round" x1="1845.845" y1="17.89" x2="1845.845" y2="497.74"/>
<line fill="none" stroke="#FFFFFF" stroke-width="0.6" stroke-linejoin="round" x1="1819.908" y1="17.89" x2="1819.908" y2="497.74"/>
<line fill="none" stroke="#FFFFFF" stroke-width="0.6" stroke-linejoin="round" x1="1793.971" y1="17.89" x2="1793.971" y2="497.74"/>
<path fill="none" stroke="#FFFFFF" stroke-width="0.6" stroke-linejoin="round" d="M1768.033,17.89c0,0-0.283,131.36,0,177.644
	c0.065,10.765-13.396,41.987-20.866,51.958c-12.404,16.554,20.823,19.672,20.866,30.439c0.217,54.57,0,219.811,0,219.811"/>
<path fill="none" stroke="#FFFFFF" stroke-width="0.6" stroke-linejoin="round" d="M1673.909,288.344
	c46.658-18.325,68.259,21.489,67.658,49.966c-0.26,12.338,0.528,159.431,0.528,159.431"/>
<path fill="none" stroke="#FFFFFF" stroke-width="0.6" stroke-linejoin="round" d="M1742.096,17.89c0,0,1.189,114.105,1.008,119.558
	c-0.603,18.052-12.338,92.397-55.477,133.587"/>
<path fill="none" stroke="#FFFFFF" stroke-width="0.6" stroke-linejoin="round" d="M1656.541,300.191
	c37.43-7.691,59.617,39.809,59.617,67.979c0,32.393,0,129.569,0,129.569"/>
<path fill="none" stroke="#FFFFFF" stroke-width="0.6" stroke-linejoin="round" d="M1692.416,261.135
	c5.887-17.967,23.767-83.301,23.742-155.854c-0.008-21.848,0-87.392,0-87.392"/>
<path fill="none" stroke="#FFFFFF" stroke-width="0.6" stroke-linejoin="round" d="M1642.429,305.273
	c43.921,18.527,47.483,56.342,47.793,83.325c0.313,27.283,0,109.142,0,109.142"/>
<path fill="none" stroke="#FFFFFF" stroke-width="0.6" stroke-linejoin="round" d="M1690.222,17.89c0,0-0.697,50.245,0,66.973
	c2.278,54.638,9.92,96.983,7.248,150.383c-1.218,24.333,0,0,0,0"/>
<path fill="none" stroke="#FFFFFF" stroke-width="0.6" stroke-linejoin="round" d="M1628.609,307.416
	c18.593,15.159,35.705,49.174,35.675,95.161c-0.016,23.791,0,95.163,0,95.163"/>
<path fill="none" stroke="#FFFFFF" stroke-width="0.6" stroke-linejoin="round" d="M1664.284,17.89c0,0-0.26,39.542,0,52.719
	c1.216,61.77,2.705,70.989,23.343,128.693"/>
<path fill="none" stroke="#FFFFFF" stroke-width="0.6" stroke-linejoin="round" d="M1611.782,306.201
	c24.777,22.409,26.564,80.762,26.564,104.299c0,21.811,0,87.24,0,87.24"/>
<path fill="none" stroke="#FFFFFF" stroke-width="0.6" stroke-linejoin="round" d="M1638.347,17.89v43.928
	c0,0-11.967,81.244,39.469,124.033"/>
<path fill="none" stroke="#FFFFFF" stroke-width="0.6" stroke-linejoin="round" d="M1593.521,300.191
	c14.03,15.309,18.889,74.309,18.889,116.337c0,20.303,0,81.212,0,81.212"/>
<path fill="none" stroke="#FFFFFF" stroke-width="0.6" stroke-linejoin="round" d="M1612.41,17.89v39.042v14.234
	c0,0-3.41,83.79,37.395,96.082"/>
<path fill="none" stroke="#FFFFFF" stroke-width="0.6" stroke-linejoin="round" d="M1576.39,288.561
	c12.205,30.925,10.083,110.405,10.083,129.061c0,20.029,0,80.119,0,80.119"/>
<path fill="none" stroke="#FFFFFF" stroke-width="0.6" stroke-linejoin="round" d="M1586.473,17.89v37.949V68.5
	c0,0,4.179,94.498,39.902,94.576"/>
<path fill="none" stroke="#FFFFFF" stroke-width="0.6" stroke-linejoin="round" d="M1556.445,257.756
	c4.011,42.436,4.09,129.207,4.09,160.077c0,19.977,0,79.907,0,79.907"/>
<path fill="none" stroke="#FFFFFF" stroke-width="0.6" stroke-linejoin="round" d="M1560.535,17.89c0,0,0,30.42,0,40.56
	c0,5.846,2.369,99.737,47.017,106.762"/>
<path fill="none" stroke="#FFFFFF" stroke-width="0.6" stroke-linejoin="round" d="M1553.033,230.244
	c-8.186,29.923-18.436,120.062-18.436,178.232c0,22.316,0,89.265,0,89.265"/>
<path fill="none" stroke="#FFFFFF" stroke-width="0.6" stroke-linejoin="round" d="M1534.598,17.89c0,0,0,35.318,0,47.091
	c0,5.213,30.653,113.245,61.255,104.24"/>
<path fill="none" stroke="#FFFFFF" stroke-width="0.6" stroke-linejoin="round" d="M1554.767,218.706
	c-8.767,27.355-44.497,109.655-46.106,178.817c-0.583,25.048,0,100.218,0,100.218"/>
<path fill="none" stroke="#FFFFFF" stroke-width="0.6" stroke-linejoin="round" d="M1508.66,17.89c0,0,0,43.536,0,58.047
	c0,41.311,22.924,120.563,74.815,100.296"/>
<path fill="none" stroke="#FFFFFF" stroke-width="0.6" stroke-linejoin="round" d="M1559.983,203.945
	c-7.401,14.752-77.573,109.311-77.26,177.217c0.135,29.144,0,116.578,0,116.578"/>
<path fill="none" stroke="#FFFFFF" stroke-width="0.6" stroke-linejoin="round" d="M1482.724,17.89c0,0,0,55.806,0,74.408
	c0,6.384,12.129,138.984,95.153,88.312"/>
<path fill="none" stroke="#FFFFFF" stroke-width="0.6" stroke-linejoin="round" d="M1456.786,17.89c0,0,0.084,73.733,0,98.312
	c-0.286,84.165,53.483,75.299,68.563,99.979c9.248,16.174-63.649,52.315-68.563,136.985c-2.094,36.082,0,144.574,0,144.574"/>
<path fill="none" stroke="#FFFFFF" stroke-width="0.6" stroke-linejoin="round" d="M1430.849,17.89c0,0,0,101.98,0,135.974
	c0,11.326,2.144,34.251,5.321,45.122c7.736,26.468,31.665,37.734,26.865,52.804c-5.907,18.549-32.187,61.034-32.187,67.809
	c0,44.535,0,178.143,0,178.143"/>
<line fill="none" stroke="#FFFFFF" stroke-width="0.6" stroke-linejoin="round" x1="1404.912" y1="17.89" x2="1404.912" y2="497.74"/>
<line fill="none" stroke="#FFFFFF" stroke-width="0.6" stroke-linejoin="round" x1="1378.975" y1="17.89" x2="1378.975" y2="497.74"/>
<line fill="none" stroke="#FFFFFF" stroke-width="0.6" stroke-linejoin="round" x1="1353.037" y1="17.89" x2="1353.037" y2="497.74"/>
<line fill="none" stroke="#FFFFFF" stroke-width="0.6" stroke-linejoin="round" x1="1327.1" y1="17.89" x2="1327.1" y2="497.74"/>
<line fill="none" stroke="#FFFFFF" stroke-width="0.6" stroke-linejoin="round" x1="1301.162" y1="17.89" x2="1301.162" y2="497.74"/>
<line fill="none" stroke="#FFFFFF" stroke-width="0.6" stroke-linejoin="round" x1="1275.226" y1="17.89" x2="1275.226" y2="497.74"/>
<line fill="none" stroke="#FFFFFF" stroke-width="0.6" stroke-linejoin="round" x1="1249.288" y1="17.89" x2="1249.288" y2="497.74"/>
<line fill="none" stroke="#FFFFFF" stroke-width="0.6" stroke-linejoin="round" x1="1223.351" y1="17.89" x2="1223.351" y2="497.74"/>
<line fill="none" stroke="#FFFFFF" stroke-width="0.6" stroke-linejoin="round" x1="1197.414" y1="17.89" x2="1197.414" y2="497.74"/>
<line fill="none" stroke="#FFFFFF" stroke-width="0.6" stroke-linejoin="round" x1="1171.477" y1="17.89" x2="1171.477" y2="497.74"/>
<line fill="none" stroke="#FFFFFF" stroke-width="0.6" stroke-linejoin="round" x1="1145.539" y1="17.89" x2="1145.539" y2="497.74"/>
<line fill="none" stroke="#FFFFFF" stroke-width="0.6" stroke-linejoin="round" x1="1119.602" y1="17.89" x2="1119.602" y2="497.74"/>
<line fill="none" stroke="#FFFFFF" stroke-width="0.6" stroke-linejoin="round" x1="1093.664" y1="17.89" x2="1093.664" y2="497.74"/>
<line fill="none" stroke="#FFFFFF" stroke-width="0.6" stroke-linejoin="round" x1="1067.728" y1="17.89" x2="1067.728" y2="497.74"/>
<line fill="none" stroke="#FFFFFF" stroke-width="0.6" stroke-linejoin="round" x1="1041.79" y1="46.061" x2="2000.984" y2="46.061"/>
<path fill="none" stroke="#FFFFFF" stroke-width="0.6" stroke-linejoin="round" d="M1041.79,74.291c0,0,352.597,1.335,470.119,0
	c69.593-0.791,119.986,22.824,135.293,23.403c11.044,0.418,7.974-18.422,24.433-23.403c22.336-6.76,329.35,0,329.35,0"/>
<path fill="none" stroke="#FFFFFF" stroke-width="0.6" stroke-linejoin="round" d="M1041.79,102.521c0,0,322.716,7.188,429.967,0
	c163.68-10.97,184.784,44.765,192.527,44.725c14.025,0-15.079-43.845,48.89-44.725c71.946-0.99,287.811,0,287.811,0"/>
<path fill="none" stroke="#FFFFFF" stroke-width="0.6" stroke-linejoin="round" d="M1689.912,203.605
	c-3.075-25.396,4.957-72.854,48.559-72.854c65.629,0,262.514,0,262.514,0"/>
<path fill="none" stroke="#FFFFFF" stroke-width="0.6" stroke-linejoin="round" d="M1041.79,130.75c0,0,302.463,0,403.284,0
	c106.386,0,201.926,31.687,219.095,43.849"/>
<path fill="none" stroke="#FFFFFF" stroke-width="0.6" stroke-linejoin="round" d="M1695.26,218.559
	c0-28.97,20.898-59.578,59.976-59.578c61.438,0,245.749,0,245.749,0"/>
<path fill="none" stroke="#FFFFFF" stroke-width="0.6" stroke-linejoin="round" d="M1041.79,158.98c0,0,289.917,2.209,386.522,0
	c67.337-1.54,192.812-7.73,227.078,10.773"/>
<path fill="none" stroke="#FFFFFF" stroke-width="0.6" stroke-linejoin="round" d="M2000.984,187.21c0,0-177.352,0-236.469,0
	c-28.685,0-63.379,8.053-68.407,60.613"/>
<path fill="none" stroke="#FFFFFF" stroke-width="0.6" stroke-linejoin="round" d="M1041.79,187.21c0,0,281.961,3.381,375.867,0
	c116.94-4.21,182.78-36.71,225.767-21.77"/>
<path fill="none" stroke="#FFFFFF" stroke-width="0.6" stroke-linejoin="round" d="M2000.984,215.44
	c0,0-155.224-2.543-206.863,0.263c-26.409,1.436-94.098,10.137-99.073,37.1"/>
<path fill="none" stroke="#FFFFFF" stroke-width="0.6" stroke-linejoin="round" d="M1041.79,215.44c0,0,277.699,0.592,370.263,0
	c75.082-0.48,167.11-46.53,195.499-50.229"/>
<path fill="none" stroke="#FFFFFF" stroke-width="0.6" stroke-linejoin="round" d="M2000.984,243.67c0,0-171.287,0-228.383,0
	c-68.769,0-91.664,37.213-91.664,37.213"/>
<path fill="none" stroke="#FFFFFF" stroke-width="0.6" stroke-linejoin="round" d="M1041.79,243.67c0,0,276.867,0,369.156,0
	c71.464,0,138.831-56.72,181.144-72.655"/>
<path fill="none" stroke="#FFFFFF" stroke-width="0.6" stroke-linejoin="round" d="M2000.984,271.9c0,0-220.488,0.133-231.746,0.447
	c-77.071,2.152-103.988,30.152-133.802,34.323"/>
<path fill="none" stroke="#FFFFFF" stroke-width="0.6" stroke-linejoin="round" d="M1041.79,271.9c0,0,279.33,0.637,372.438,0
	c94.223-0.645,131.522-81.34,169.248-95.667"/>
<path fill="none" stroke="#FFFFFF" stroke-width="0.6" stroke-linejoin="round" d="M2000.984,300.131c0,0-221.166-0.744-239.662,0
	c-36.305,1.462-119.377,10.229-140.822,7.145"/>
<path fill="none" stroke="#FFFFFF" stroke-width="0.6" stroke-linejoin="round" d="M1041.79,300.131c0,0,285.328-0.132,380.438,0
	c43.772,0.061,114.397-64.885,146.129-109.57"/>
<path fill="none" stroke="#FFFFFF" stroke-width="0.6" stroke-linejoin="round" d="M1587.258,296.754
	c12.491,8.707,65.242,31.606,160.604,31.606c63.281,0,253.123,0,253.123,0"/>
<path fill="none" stroke="#FFFFFF" stroke-width="0.6" stroke-linejoin="round" d="M1041.79,328.36c0,0,327.6,0,393.9,0
	c51.444,0,106.17-74.595,119.076-109.655"/>
<path fill="none" stroke="#FFFFFF" stroke-width="0.6" stroke-linejoin="round" d="M1576.39,288.561
	c7.397,11.631,65.11,68.029,150.963,68.029c68.408,0,273.632,0,273.632,0"/>
<path fill="none" stroke="#FFFFFF" stroke-width="0.6" stroke-linejoin="round" d="M1041.79,356.59c0,0,311.303,3.397,414.996,0
	c38.863-1.273,97.657-96.205,95.751-124.235"/>
<path fill="none" stroke="#FFFFFF" stroke-width="0.6" stroke-linejoin="round" d="M1561.896,270.235
	C1566.75,283.03,1596,378.5,1695.816,384.82c76.14,4.821,305.168,0,305.168,0"/>
<path fill="none" stroke="#FFFFFF" stroke-width="0.6" stroke-linejoin="round" d="M1041.79,384.82c0,0,334.464,0,445.952,0
	c40.987,0,72.793-107.685,67.024-133.031"/>
<path fill="none" stroke="#FFFFFF" stroke-width="0.6" stroke-linejoin="round" d="M1041.79,413.051c0,0,483.828,4.78,500.07,0.697
	c13.803-3.47,5.611-76.452,36.64-39.518c8.903,10.598,45.628,37.782,54.209,38.82c91.402,11.054,368.275,0,368.275,0"/>
<line fill="none" stroke="#FFFFFF" stroke-width="0.6" stroke-linejoin="round" x1="1041.79" y1="441.28" x2="2000.984" y2="441.28"/>
<line fill="none" stroke="#FFFFFF" stroke-width="0.6" stroke-linejoin="round" x1="1041.79" y1="469.51" x2="2000.984" y2="469.51"/>
<path fill="none" stroke="#000000" stroke-width="0.3" stroke-linejoin="round" d="M1158.79,196.326"/>
<circle fill="none" stroke="#FFFFFF" stroke-width="0.6" stroke-miterlimit="10" cx="1626.375" cy="232.536" r="72.17"/>
<circle fill="none" stroke="#FFFFFF" stroke-width="0.6" stroke-miterlimit="10" cx="1628.073" cy="237.105" r="72.17"/>
</svg>
